# xmcd
# Track frame offsets:
# 150
# 13794
# 23614
# 38234
# 52329
# 64998
# 77292
# 94537
# 103832
# 113352
# 126996
# 140415
# 152335
# 161930
# 175874
#
# Disc length: 2515 seconds
# Revision: 0
# Processed by: cddbd v1.5.2PL0 Copyright (c) Steve Scherf et al.
# Submitted via: VisiTrax 2.11.2.271 - For more info visit www.synapsa.com
#
DISCID=bc09d10f
DTITLE=Various Artist - Classic Country 1970-1974 Disc 1
DYEAR=1999
DGENRE=Country
TTITLE0=Loretta Lynn - Coal Miner's Daughter
TTITLE1=Mel Tillis - I Ain't Never
TTITLE2=Olivia Newton-John - If You Love Me (Let Me Know)
TTITLE3=George Jones - The Grand Tour
TTITLE4=Donna Fargo - Funny Face
TTITLE5=Merle Haggard - If We Make It Through December
TTITLE6=Ray Price - For The Good Times
TTITLE7=Charlie Pride - Kiss An Angel Good Morning
TTITLE8=Dottie West - Country Sunshine
TTITLE9=Conway Twitty - You've Never Been This Far Before
TTITLE10=Charlie Rich - Behind Closed Doors
TTITLE11=Tammy Wynette - He Loves Me All The Way
TTITLE12=Tom T. Hall - I Love
TTITLE13=Dolly Parton - Coat Of Many Colors
TTITLE14=The Statler Brothers - Do You Remember These
EXTD=
EXTT0=
EXTT1=
EXTT2=
EXTT3=
EXTT4=
EXTT5=
EXTT6=
EXTT7=
EXTT8=
EXTT9=
EXTT10=
EXTT11=
EXTT12=
EXTT13=
EXTT14=
PLAYORDER=
